HIERARCHY
ROOT Hips
{

	OFFSET     0.00     0.00     0.00
	CHANNELS 6 Xposition Yposition Zposition Zrotation Xrotation Yrotation
	JOINT Abdomen
	{

		OFFSET     0.00     0.00     0.00
		CHANNELS 3 Zrotation Xrotation Yrotation
		JOINT Chest
		{

			OFFSET     0.00     6.25    -0.56
			CHANNELS 3 Zrotation Xrotation Yrotation
			JOINT neckDummy
			{

				OFFSET     0.00     8.24    -0.24
				CHANNELS 3 Zrotation Xrotation Yrotation
				JOINT Neck
				{

					OFFSET     0.00     2.70     0.28
					CHANNELS 3 Zrotation Xrotation Yrotation
					JOINT Head
					{

						OFFSET     0.00     2.71     0.33
						CHANNELS 3 Zrotation Xrotation Yrotation
						End Site
						{
							OFFSET     0.00    10.59     0.00
						}
					}

				}

			}

			JOINT LeftCollar
			{

				OFFSET     0.60     8.24    -0.24
				CHANNELS 3 Zrotation Xrotation Yrotation
				JOINT LeftUpArm
				{

					OFFSET     4.53     0.03    -0.05
					CHANNELS 3 Zrotation Xrotation Yrotation
					JOINT LeftLowArm
					{

						OFFSET    13.87     0.14    -0.30
						CHANNELS 3 Zrotation Xrotation Yrotation
						JOINT LeftHand
						{

							OFFSET    10.93    -0.04     0.16
							CHANNELS 3 Zrotation Xrotation Yrotation
							End Site
							{
								OFFSET    10.59     0.00     0.00
							}
						}

					}

				}

			}

			JOINT RightCollar
			{

				OFFSET    -0.60     8.24    -0.24
				CHANNELS 3 Zrotation Xrotation Yrotation
				JOINT RightUpArm
				{

					OFFSET    -4.53     0.03    -0.05
					CHANNELS 3 Zrotation Xrotation Yrotation
					JOINT RightLowArm
					{

						OFFSET   -13.87     0.14    -0.30
						CHANNELS 3 Zrotation Xrotation Yrotation
						JOINT RightHand
						{

							OFFSET   -10.93    -0.04     0.16
							CHANNELS 3 Zrotation Xrotation Yrotation
							End Site
							{
								OFFSET   -10.60     0.00     0.00
							}
						}

					}

				}

			}

		}

	}

	JOINT LeftUpLeg
	{

		OFFSET     3.29    -4.40    -0.40
		CHANNELS 3 Zrotation Xrotation Yrotation
		JOINT LeftLowLeg
		{

			OFFSET    -0.23   -20.19     0.08
			CHANNELS 3 Zrotation Xrotation Yrotation
			JOINT LeftFoot
			{

				OFFSET     0.10   -16.90    -0.20
				CHANNELS 3 Zrotation Xrotation Yrotation
				End Site
				{
					OFFSET     0.00     0.00    10.60
				}
			}

		}

	}

	JOINT RightUpLeg
	{

		OFFSET    -3.29    -4.40    -0.40
		CHANNELS 3 Zrotation Xrotation Yrotation
		JOINT RightLowLeg
		{

			OFFSET     0.23   -20.19     0.08
			CHANNELS 3 Zrotation Xrotation Yrotation
			JOINT RightFoot
			{

				OFFSET    -0.10   -16.90    -0.21
				CHANNELS 3 Zrotation Xrotation Yrotation
				End Site
				{
					OFFSET     0.00     0.00    10.60
				}
			}

		}

	}

}

MOTION
Frames: 27
Frame Time: 0.333333
   	0.00	51.04	0.00	44.79	0.84	-62.04	0.00	0.00	0.00	-0.32	-5.07	-5.07	0.00	0.00	0.00	0.00	0.00	0.00	0.00	0.00	0.00	0.00	0.00	0.00	8.16	100.86	-8.67	-4.89	-2.32	-10.83	10.81	23.52	-1.22	0.00	0.00	0.00	-6.73	100.66	7.14	5.98	-2.30	11.52	-11.04	22.18	0.02	23.73	38.17	53.23	-0.58	-2.99	-0.34	-10.21	70.59	27.49	-12.50	-41.54	-63.00	-2.19	-3.26	-7.54	75.74	-37.72	-94.61	
	0.00	51.02	0.00	44.79	0.84	-62.04	0.00	0.00	0.00	-0.32	-5.07	-5.07	0.00	0.00	0.00	-0.23	-0.91	-2.02	0.00	0.00	0.00	0.00	0.00	0.00	-1.65	145.17	-21.90	-14.30	-41.40	-14.18	6.74	12.36	3.40	0.00	0.00	0.00	70.56	108.59	-83.21	0.82	37.62	11.56	-7.49	10.97	-4.50	23.73	38.17	53.23	-0.58	-2.99	-0.34	-10.21	70.59	27.49	-12.50	-41.54	-63.00	-2.19	-3.26	-7.54	75.76	-37.72	-96.06
	0.00	51.01	0.00	44.79	0.84	-62.04	0.00	0.00	0.00	-0.32	-5.07	-5.07	0.00	0.00	0.00	-0.48	-1.80	-4.05	0.00	0.00	0.00	0.00	0.00	0.00	-18.84	186.58	-39.51	-58.78	-76.81	-54.28	3.75	0.90	7.04	0.00	0.00	0.00	80.62	127.22	-106.98	-17.60	77.00	26.43	-4.84	-0.54	-8.29	23.73	38.17	53.23	-0.58	-2.99	-0.34	-10.21	70.59	27.49	-12.50	-41.54	-63.00	-2.19	-3.26	-7.54	75.77	-37.73	-97.52
	0.00	51.02	0.00	44.79	0.84	-62.04	0.00	0.00	0.00	-0.32	-5.07	-5.07	0.00	0.00	0.00	0.09	-1.48	-0.08	0.00	0.00	0.00	0.00	0.00	0.00	-18.36	142.02	10.11	-8.88	-1.56	-8.76	3.75	0.90	7.04	0.00	0.00	0.00	16.23	141.83	-7.19	9.93	-1.50	9.42	-4.84	-0.54	-8.29	23.73	38.17	53.23	-0.58	-2.99	-0.34	-10.21	70.59	27.49	-12.50	-41.54	-63.00	-2.19	-3.26	-7.54	75.76	-37.72	-96.06
	0.00	51.04	0.00	44.79	0.84	-62.04	0.00	0.00	0.00	-0.32	-5.07	-5.07	0.00	0.00	0.00	0.65	-1.13	3.90	0.00	0.00	0.00	0.00	0.00	0.00	-80.65	126.83	106.95	16.05	77.24	-23.88	3.75	0.90	7.04	0.00	0.00	0.00	17.39	187.67	43.73	61.64	-76.19	56.17	-4.84	-0.54	-8.29	23.73	38.17	53.23	-0.58	-2.99	-0.34	-10.21	70.59	27.49	-12.50	-41.54	-63.00	-2.19	-3.26	-7.54	75.74	-37.72	-94.61
	0.00	51.04	0.00	44.79	0.84	-62.04	0.00	0.00	0.00	-0.32	-5.07	-5.07	0.00	0.00	0.00	0.65	-1.13	3.90	0.00	0.00	0.00	0.00	0.00	0.00	-80.65	126.83	106.95	16.05	77.24	-23.88	3.75	0.90	7.04	0.00	0.00	0.00	16.17	141.95	-7.02	9.93	-1.50	9.42	-4.84	-0.54	-8.29	23.73	38.17	53.23	-0.58	-2.99	-0.34	-10.21	70.59	27.49	-12.50	-41.54	-63.00	-2.19	-3.26	-7.54	75.74	-37.72	-94.61
	0.00	51.04	0.00	44.79	0.84	-62.04	0.00	0.00	0.00	-0.32	-5.07	-5.07	0.00	0.00	0.00	0.65	-1.13	3.90	0.00	0.00	0.00	0.00	0.00	0.00	-80.65	126.83	106.95	16.05	77.24	-23.88	3.75	0.90	7.04	0.00	0.00	0.00	80.62	127.22	-106.98	-17.60	77.00	26.43	-4.84	-0.54	-8.29	23.73	38.17	53.23	-0.58	-2.99	-0.34	-10.21	70.59	27.49	-12.50	-41.54	-63.00	-2.19	-3.26	-7.54	75.74	-37.72	-94.61
	0.00	51.26	0.00	27.46	12.81	-44.80	0.00	0.00	0.00	0.10	-3.42	-3.39	0.00	0.00	0.00	0.42	-0.76	2.60	0.00	0.00	0.00	0.00	0.00	0.00	-83.10	130.94	85.16	10.06	49.75	-17.77	10.27	2.40	0.98	0.00	0.00	0.00	83.19	131.30	-85.27	-9.81	49.58	18.77	-11.12	0.49	-2.03	10.63	25.25	58.42	-0.58	-2.99	-0.34	-5.37	45.24	23.66	-4.12	-27.35	-59.48	-2.21	-3.24	-5.88	70.72	-32.38	-97.47
	0.00	51.09	0.00	9.46	11.72	-22.00	0.00	0.00	0.00	0.49	-1.76	-1.73	0.00	0.00	0.00	0.21	-0.38	1.30	0.00	0.00	0.00	0.00	0.00	0.00	-87.45	134.26	64.66	8.95	21.96	-16.51	17.10	3.18	-5.37	0.00	0.00	0.00	87.61	134.52	-64.80	-8.16	21.81	17.28	-17.63	0.80	4.39	-0.37	11.57	60.14	-0.58	-2.99	-0.34	-3.47	19.81	22.99	2.66	-12.93	-58.42	-2.23	-3.24	-4.21	66.29	-26.85	-99.64
	0.00	50.54	0.00	0.00	0.00	0.00	0.00	0.00	0.00	0.83	-0.10	-0.09	0.00	0.00	0.00	0.00	0.00	0.00	0.00	0.00	0.00	0.00	0.00	0.00	-92.96	136.35	44.85	8.51	-5.64	-15.87	23.85	3.18	-11.67	0.00	0.00	0.00	93.11	136.47	-44.96	-7.32	-5.79	16.67	-23.94	0.36	10.66	-10.60	-2.04	59.22	-0.58	-2.99	-0.34	-1.96	-5.62	23.17	9.00	1.47	-59.07	-2.26	-3.24	-2.55	62.22	-21.30	-101.19
	0.00	50.54	0.00	0.00	0.00	0.00	0.00	0.00	0.00	0.83	-0.10	-0.09	0.00	0.00	0.00	0.00	0.00	0.00	0.00	0.00	0.00	0.00	0.00	0.00	-92.96	136.35	44.85	8.51	-5.64	-15.87	23.85	3.18	-11.67	0.00	0.00	0.00	93.11	136.47	-44.96	-7.32	-5.79	16.67	-23.94	0.36	10.66	-10.60	-2.04	59.22	-0.58	-2.99	-0.34	-1.96	-5.62	23.17	8.99	1.47	-59.08	-2.26	-3.24	-2.55	62.22	-21.30	-101.19
	0.00	50.54	0.00	0.00	0.00	0.00	0.00	0.00	0.00	0.83	-0.10	-0.09	0.00	0.00	0.00	0.00	0.00	0.00	0.00	0.00	0.00	0.00	0.00	0.00	-92.96	136.35	44.85	8.51	-5.64	-15.87	23.85	3.18	-11.67	0.00	0.00	0.00	93.11	136.47	-44.96	-7.32	-5.79	16.67	-23.94	0.36	10.66	-10.60	-2.04	59.22	-0.58	-2.99	-0.34	-1.96	-5.62	23.17	8.99	1.47	-59.08	-2.26	-3.24	-2.55	62.22	-21.30	-101.19
	0.22	45.90	-3.14	0.00	0.00	0.00	0.00	0.00	0.00	0.83	-0.10	-0.09	0.00	0.00	0.00	0.00	0.00	0.00	0.00	0.00	0.00	0.00	0.00	0.00	-92.96	136.35	44.85	8.51	-5.64	-15.87	23.80	2.30	-11.55	0.00	0.00	0.00	93.11	136.47	-44.96	-7.32	-5.79	16.67	-23.97	1.24	10.77	3.59	-12.60	61.33	-1.83	29.98	1.46	4.08	-19.05	22.33	-7.17	-10.11	-59.71	4.24	34.51	-5.86	61.15	-22.84	-120.25
	0.31	41.38	-4.52	1.24	0.00	0.00	-0.25	0.01	-0.01	0.83	-0.10	-0.09	0.00	0.00	0.00	0.00	0.00	0.00	0.00	0.00	0.00	0.00	0.00	0.00	-89.12	131.66	47.96	-0.36	-3.30	-12.60	11.35	2.37	-1.28	0.00	0.00	0.00	89.08	131.87	-48.02	1.53	-3.33	13.31	-11.97	1.08	0.18	34.59	-19.37	66.51	-12.55	60.39	23.05	4.62	-14.80	12.86	-15.76	-15.73	-62.02	7.71	51.73	-8.96	59.86	-23.18	-128.53
	0.23	43.79	-5.01	2.50	0.00	0.00	-0.50	0.01	-0.02	0.83	-0.10	-0.09	0.00	0.00	0.00	0.00	0.00	0.00	0.00	0.00	0.00	0.00	0.00	0.00	-85.20	126.87	50.92	-9.40	-1.48	-9.00	-0.90	0.25	8.79	0.00	0.00	0.00	85.34	127.04	-51.11	10.46	-1.42	9.64	-0.28	-1.28	-10.14	33.88	-10.60	64.21	-16.86	36.41	25.76	2.26	3.81	4.85	-14.02	-15.20	-61.53	5.42	44.31	-7.07	58.54	-23.53	-124.21
	-0.49	47.38	-3.62	5.00	0.00	0.00	-0.99	0.01	-0.03	0.83	-0.10	-0.09	0.00	0.00	0.00	0.00	0.00	0.00	0.00	0.00	0.00	0.00	0.00	0.00	-77.16	116.93	56.04	-9.40	-1.48	-9.00	-0.90	0.25	8.79	0.00	0.00	0.00	77.55	117.13	-56.46	10.46	-1.42	9.64	-0.28	-1.28	-10.14	37.01	-8.89	64.07	-0.57	-2.86	-0.34	-53.66	53.46	60.31	-9.58	-9.93	-61.51	2.17	29.50	-4.59	62.43	-21.30	-116.09
	-0.05	47.46	-2.80	5.00	0.00	0.00	-0.66	0.01	-0.03	0.50	-0.11	-0.10	0.00	0.00	0.00	0.64	-0.18	4.94	0.00	0.00	0.00	0.00	0.00	0.00	-85.10	126.87	50.88	-0.41	-3.29	-12.59	11.32	1.94	-1.25	0.00	0.00	0.00	85.44	127.03	-51.16	1.49	-3.34	13.33	-11.99	1.49	0.20	21.85	-6.56	61.86	-0.60	-2.86	2.98	-43.78	55.56	52.51	-1.11	-0.26	-59.19	-2.18	-3.08	-5.88	57.74	-18.84	-32.44
	0.39	55.65	-1.97	0.00	0.00	0.00	0.00	0.00	0.00	0.83	-0.10	-0.09	0.00	0.00	0.00	1.30	-0.31	9.91	0.00	0.00	0.00	0.00	0.00	0.00	-92.96	136.35	44.85	8.51	-5.64	-15.87	23.74	1.44	-11.44	0.00	0.00	0.00	93.11	136.47	-44.96	-7.32	-5.79	16.67	-24.01	2.11	10.88	-7.96	-0.79	59.59	-0.66	-3.17	9.65	-21.60	56.87	34.44	5.87	1.89	-59.11	-2.11	-3.29	-12.54	50.87	-11.31	-41.61
	0.83	53.19	-1.15	0.00	0.00	0.00	0.00	0.00	0.00	0.83	-0.10	-0.09	0.00	0.00	0.00	1.30	-0.31	9.91	0.00	0.00	0.00	0.00	0.00	0.00	-92.96	136.35	44.85	8.51	-5.64	-15.87	23.74	1.44	-11.44	0.00	0.00	0.00	93.11	136.47	-44.96	-7.32	-5.79	16.67	-24.01	2.11	10.88	-7.96	-0.79	59.59	-0.66	-3.17	9.65	-21.60	56.87	34.44	5.87	1.89	-59.11	-2.11	-3.29	-12.54	50.87	-11.31	-41.61
	1.27	49.64	-0.33	0.00	0.00	0.00	0.00	0.00	0.00	0.83	-0.10	-0.09	0.00	0.00	0.00	1.30	-0.31	9.91	0.00	0.00	0.00	0.00	0.00	0.00	-92.96	136.35	44.85	8.51	-5.64	-15.87	23.74	1.44	-11.44	0.00	0.00	0.00	93.11	136.47	-44.96	-7.32	-5.79	16.67	-24.01	2.11	10.88	-1.99	-5.57	60.18	-2.18	12.51	8.25	-4.32	26.03	20.93	0.22	-2.72	-59.28	0.83	12.16	-11.04	55.10	-12.42	-75.13
	0.84	47.12	-1.79	0.00	0.00	0.00	0.00	0.00	0.00	0.83	-0.10	-0.09	0.00	0.00	0.00	1.30	-0.31	9.91	0.00	0.00	0.00	0.00	0.00	0.00	-92.96	136.35	44.85	8.51	-5.64	-15.87	23.74	1.44	-11.44	0.00	0.00	0.00	93.11	136.47	-44.96	-7.32	-5.79	16.67	-24.01	2.11	10.88	7.23	-12.69	62.15	-4.11	36.19	6.79	2.65	-3.48	20.01	-8.48	-9.57	-60.35	5.06	35.55	-10.12	59.55	-16.92	-103.73
	0.42	38.74	-3.26	0.00	0.00	0.00	0.00	0.00	0.00	0.83	-0.10	-0.09	0.00	0.00	0.00	1.30	-0.31	9.91	0.00	0.00	0.00	0.00	0.00	0.00	-92.96	136.35	44.85	8.51	-5.64	-15.87	23.74	1.44	-11.44	0.00	0.00	0.00	93.11	136.47	-44.96	-7.32	-5.79	16.67	-24.01	2.11	10.88	17.15	-19.41	65.27	-5.94	59.86	5.89	10.43	-32.88	22.99	-17.53	-16.25	-62.55	11.14	58.88	-12.05	61.22	-22.95	-132.85
	0.19	47.17	-1.20	0.00	0.00	0.00	0.00	0.00	0.00	0.83	-0.10	-0.09	0.00	0.00	0.00	1.30	-0.31	9.91	0.00	0.00	0.00	0.00	0.00	0.00	-92.96	136.35	44.85	8.51	-5.64	-15.87	23.74	1.44	-11.44	0.00	0.00	0.00	93.11	136.47	-44.96	-7.32	-5.79	16.67	-24.01	2.11	10.88	2.82	-11.08	61.15	-1.85	28.50	1.44	3.96	-19.21	22.30	-4.01	-7.54	-59.75	1.94	28.02	-4.47	61.87	-22.18	-116.97
	-0.03	50.54	0.86	0.00	0.00	0.00	0.00	0.00	0.00	0.83	-0.10	-0.09	0.00	0.00	0.00	1.30	-0.31	9.91	0.00	0.00	0.00	0.00	0.00	0.00	-92.96	136.35	44.85	8.51	-5.64	-15.87	23.74	1.44	-11.44	0.00	0.00	0.00	93.11	136.47	-44.96	-7.32	-5.79	16.67	-24.01	2.11	10.88	-10.60	-2.04	59.22	-0.58	-2.99	-0.34	-1.96	-5.62	23.17	8.99	1.47	-59.08	-2.26	-3.24	-2.55	62.22	-21.30	-101.19
	-0.03	50.54	0.86	0.00	0.00	0.00	0.00	0.00	0.00	0.83	-0.10	-0.09	0.00	0.00	0.00	0.86	-0.23	6.61	0.00	0.00	0.00	0.00	0.00	0.00	-92.96	136.35	44.85	8.51	-5.64	-15.87	23.77	2.03	-11.50	0.00	0.00	0.00	93.11	136.47	-44.96	-7.32	-5.79	16.67	-24.00	1.52	10.81	-10.60	-2.04	59.22	-0.58	-2.99	-0.34	-1.96	-5.62	23.17	8.99	1.47	-59.08	-2.26	-3.24	-2.55	62.22	-21.30	-101.19
	-0.03	50.54	0.86	0.00	0.00	0.00	0.00	0.00	0.00	0.83	-0.10	-0.09	0.00	0.00	0.00	0.42	-0.13	3.31	0.00	0.00	0.00	0.00	0.00	0.00	-92.96	136.35	44.85	8.51	-5.64	-15.87	23.81	2.60	-11.59	0.00	0.00	0.00	93.11	136.47	-44.96	-7.32	-5.79	16.67	-23.97	0.94	10.74	-10.60	-2.04	59.22	-0.58	-2.99	-0.34	-1.96	-5.62	23.17	8.99	1.47	-59.08	-2.26	-3.24	-2.55	62.22	-21.30	-101.19
	-0.03	50.54	0.86	0.00	0.00	0.00	0.00	0.00	0.00	0.83	-0.10	-0.09	0.00	0.00	0.00	0.00	0.00	0.00	0.00	0.00	0.00	0.00	0.00	0.00	-92.96	136.35	44.85	8.51	-5.64	-15.87	23.85	3.18	-11.67	0.00	0.00	0.00	93.11	136.47	-44.96	-7.32	-5.79	16.67	-23.94	0.36	10.66	-10.60	-2.04	59.22	-0.58	-2.99	-0.34	-1.96	-5.62	23.17	8.99	1.47	-59.08	-2.26	-3.24	-2.55	62.22	-21.30	-101.19
